<svg width="98" height="98" viewBox="0 0 98 98" fill="none" xmlns="http://www.w3.org/2000/svg">
<g clip-path="url(#clip0)">
<path d="M97.0293 56.2713C97.0293 56.2632 97.0293 56.2511 97.0293 56.243C97.0293 55.6246 96.5281 55.1234 95.9097 55.1234C95.7278 55.1234 95.5581 55.1679 95.4045 55.2447L95.4126 55.2407C94.1961 56.1985 92.6602 56.7967 90.987 56.8573H90.9748C88.8974 56.6593 89.5481 52.0073 89.5481 52.0073C89.5481 52.0073 90.0048 47.7474 88.7762 47.3998C87.5475 47.0522 86.048 48.5072 86.048 48.5072C84.8881 49.845 83.9464 51.4132 83.3078 53.1309L83.2714 53.236L83.0289 53.3087C83.0936 52.5327 83.13 51.6314 83.13 50.718C83.13 49.6227 83.0774 48.5436 82.9723 47.4766L82.9845 47.61C82.742 47.0805 80.4988 47.125 80.1351 48.0667C79.1651 50.9727 78.3729 54.4162 77.9041 57.9607L77.8718 58.2517C76.0409 59.8158 73.8422 61.0081 71.4293 61.679L71.3081 61.7073C68.2445 62.1923 67.517 60.2806 67.517 60.2806C67.517 60.2806 75.8226 57.9607 75.5357 51.3243C75.2487 44.6879 68.8346 47.1412 68.099 47.6868C65.1082 49.744 63.0469 52.9612 62.5579 56.6754L62.5498 56.7401C62.5215 56.9543 62.4447 57.8799 62.4447 57.8799C61.0059 58.8741 59.3609 59.7875 57.6311 60.5352L57.4411 60.608C57.4411 60.608 62.4447 52.1811 56.3337 48.3456C53.5611 46.6764 51.3625 50.1805 51.3625 50.1805C51.3625 50.1805 59.6236 40.9816 57.8049 33.2055C56.9238 29.5074 55.0768 29.0991 53.3793 29.7054C51.9364 30.2106 50.732 31.0876 49.8347 32.2193L49.8226 32.2355C47.6603 35.679 46.1972 39.7691 45.7284 44.1584L45.7163 44.2837C44.9443 51.4819 43.8046 60.2119 43.8046 60.2119C42.9881 61.0122 41.9454 61.5861 40.7814 61.8205L40.741 61.8286C39.2698 61.9013 39.9245 57.4797 39.9245 57.4797C39.9245 57.4797 41.0643 50.718 40.9835 49.5823C40.9026 48.4466 40.8137 47.8242 39.484 47.4281C38.1543 47.032 36.6791 48.7214 36.6791 48.7214C36.6791 48.7214 32.7991 54.5859 32.4758 55.4832L32.2777 55.8469L32.0797 55.6044C32.0797 55.6044 34.8078 47.6181 32.2009 47.4968C29.594 47.3756 27.8804 50.3462 27.8804 50.3462C27.8804 50.3462 24.9098 55.3174 24.7885 55.8792L24.5905 55.6367C25.1038 53.5108 25.4513 51.0373 25.5564 48.4991L25.5605 48.4224C25.4958 47.7595 24.9461 47.2462 24.2712 47.2462C24.162 47.2462 24.061 47.2584 23.96 47.2826H23.968C23.968 47.2826 22.2544 47.0846 21.8138 48.1799C20.9206 51.1464 20.1325 54.7678 19.599 58.474L19.5505 58.8943C17.5539 60.3857 15.1613 61.4689 12.5665 61.97L12.4574 61.9862C9.63629 62.0145 9.92729 60.1998 9.92729 60.1998C9.92729 60.1998 20.2335 56.6674 17.4125 49.7116C16.4829 48.293 14.9026 47.3675 13.104 47.3675C12.9303 47.3675 12.7565 47.3756 12.5867 47.3917H12.6069C9.65246 47.6706 7.23554 49.6834 6.36254 52.3872L6.34638 52.4398C5.73609 53.8382 5.31575 55.4549 5.16621 57.1524L5.16217 57.213C4.91159 57.2696 4.62059 57.2979 4.3215 57.2979C3.58188 57.2979 2.89075 57.1039 2.29259 56.7603L2.31279 56.7724C1.34279 55.956 0.797169 56.7724 0.797169 56.7724C0.797169 56.7724 -0.900331 58.8822 0.797169 59.5289C2.02988 59.9573 3.47275 60.2806 4.96413 60.4463L5.05709 60.4544C5.48954 62.3176 6.5525 63.8777 8.0075 64.9407L8.02771 64.9568C11.0913 67.2767 16.9396 64.7588 16.9396 64.7588L19.3484 63.425C19.3484 63.425 19.4212 65.6358 21.1833 65.9551C22.9455 66.2744 23.669 66.1087 26.7164 58.6963C28.5028 54.9052 28.6281 55.1194 28.6281 55.1194L28.8261 55.0749C28.2805 57.4878 27.9653 60.2644 27.9653 63.1098C27.9653 63.4695 27.9693 63.8251 27.9814 64.1808V64.1283C28.5109 66.0683 30.8308 65.8864 30.8308 65.8864C30.8308 65.8864 32.0878 66.2501 33.0941 62.6733C34.0156 59.7027 35.022 57.1968 36.2062 54.7961L36.0648 55.1113H36.283C36.1173 56.2066 36.0203 57.4717 36.0203 58.7609C36.0203 60.8949 36.283 62.9643 36.7761 64.9447L36.7397 64.7709C38.0331 67.1353 41.42 65.5712 41.42 65.5712C42.487 65.0538 43.3802 64.5405 44.237 63.9706L44.1521 64.0232C45.7486 65.2599 47.7815 66.0077 49.9883 66.0077C50.3157 66.0077 50.635 65.9915 50.9543 65.9591L50.9138 65.9632C55.392 65.3367 59.4377 63.9545 63.0833 61.9458L62.9014 62.0387C64.0695 64.3748 66.4015 65.9713 69.1135 66.0844H69.1296C69.457 66.1208 69.8329 66.141 70.2168 66.141C73.0137 66.141 75.5599 65.0457 77.4393 63.2593L77.4353 63.2634C77.4393 64.5122 78.183 65.5873 79.25 66.0764L79.2702 66.0844C81.1496 66.8564 82.4065 62.6288 82.4065 62.6288L85.5428 53.9594H85.8298C85.8298 53.9594 85.9996 59.6097 89.0874 60.5069C89.3541 60.5312 89.6653 60.5474 89.9766 60.5474C92.3288 60.5474 94.4951 59.7512 96.225 58.4134L96.2007 58.4295C96.7221 58.0294 97.0535 57.411 97.0535 56.7118C97.0535 56.5461 97.0333 56.3885 97.001 56.2349L97.005 56.2511L97.0293 56.2713ZM9.45038 57.0715C9.57163 52.2215 12.7565 50.1158 13.8437 51.1626C14.9309 52.2094 14.5429 54.497 12.4614 55.9237C10.38 57.3504 9.44634 57.0796 9.44634 57.0796L9.45038 57.0715ZM50.7926 38.2939C50.7926 38.2939 53.7026 30.7603 54.3695 34.4139C55.0363 38.0676 48.307 48.9922 48.307 48.9922C48.99 44.8212 49.8549 41.2161 50.9462 37.7119L50.7885 38.2939H50.7926ZM54.2321 59.2702C53.6137 61.2547 51.7949 62.6692 49.6448 62.6692C48.9294 62.6692 48.2504 62.5116 47.6401 62.2287L47.6684 62.2408C47.6199 61.8003 47.5916 61.291 47.5916 60.7777C47.5916 58.8579 47.9755 57.0271 48.6707 55.3579L48.6343 55.4508C50.1338 50.4351 53.6824 52.3872 53.6824 52.3872C53.6824 52.3872 56.1357 54.2707 54.228 59.2662L54.2321 59.2702ZM67.0522 57.0715C67.032 56.8654 67.0158 56.6269 67.0158 56.3885C67.0158 54.9052 67.4887 53.5351 68.293 52.4155L68.2809 52.4357C69.9501 49.3721 71.2515 51.0535 71.2515 51.0535C71.6314 51.5546 71.8618 52.1892 71.8618 52.8763C71.8618 53.6725 71.5546 54.3959 71.0535 54.9375C70.1805 56.2389 68.7174 57.0877 67.0563 57.0917L67.0522 57.0715Z" fill="#343434"/>
</g>
<defs>
<clipPath id="clip0">
<rect width="97" height="97" fill="white" transform="translate(0.0488281 0.375)"/>
</clipPath>
</defs>
</svg>
