<svg width="82" height="81" viewBox="0 0 82 81" fill="none" xmlns="http://www.w3.org/2000/svg">
<path d="M40.7749 7C45.207 7 49.5957 7.86415 53.6905 9.54312C57.7852 11.2221 61.5058 13.683 64.6398 16.7853C67.7737 19.8876 70.2597 23.5706 71.9558 27.624C73.6519 31.6774 74.5249 36.0217 74.5249 40.4091C74.5249 49.2697 70.9691 57.7675 64.6398 64.0329C58.3104 70.2983 49.726 73.8182 40.7749 73.8182C36.3428 73.8182 31.9541 72.954 27.8593 71.2751C23.7646 69.5961 20.044 67.1352 16.91 64.0329C10.5807 57.7675 7.0249 49.2697 7.0249 40.4091C7.0249 31.5484 10.5807 23.0507 16.91 16.7853C23.2394 10.5199 31.8238 7 40.7749 7ZM40.7749 13.6818C28.1862 13.6818 17.6224 22.2011 14.6187 33.7273L47.5249 66.3011C59.1687 63.3277 67.7749 52.8707 67.7749 40.4091H50.0562V45.4205H61.6999C60.883 48.7581 59.2623 51.8505 56.9761 54.4335C54.6899 57.0166 51.8062 59.0136 48.5712 60.2541L20.7274 32.6916C23.8999 24.7402 31.6624 19.1275 40.7749 19.1275C47.9637 19.1275 54.2749 22.602 58.2574 27.9809L62.4087 24.4395C59.9049 21.0954 56.643 18.3797 52.8855 16.5113C49.128 14.6428 44.9799 13.6736 40.7749 13.6818ZM13.7749 40.4091C13.7749 47.4976 16.6195 54.2958 21.683 59.3081C26.7465 64.3205 33.6141 67.1364 40.7749 67.1364C40.9099 67.1364 41.0787 67.1364 13.7749 40.4091Z" fill="#343434"/>
</svg>
