<svg width="83" height="83" viewBox="0 0 83 83" fill="none" xmlns="http://www.w3.org/2000/svg">
<path d="M48.5594 51.2315C49.3544 52.843 50.5879 54.1976 52.1182 55.1395C53.6485 56.0814 55.4135 56.5725 57.2104 56.5563C60.8441 56.5563 63.1657 54.7395 63.1657 52.2308C63.1657 49.225 60.78 48.159 56.7825 46.4088L54.589 45.4684C48.2622 42.7726 44.0571 39.3953 44.0571 32.2561C44.0571 25.6782 49.0694 20.6736 56.9004 20.6736C59.442 20.4892 61.9816 21.0581 64.2016 22.3092C66.4217 23.5603 68.2237 25.438 69.3823 27.7077L62.5532 32.0921C62.1061 30.9675 61.3273 30.0055 60.3203 29.334C59.3134 28.6625 58.1259 28.3134 56.9157 28.333C56.3883 28.2799 55.8555 28.3373 55.3515 28.5016C54.8474 28.6659 54.3831 28.9334 53.9882 29.2871C53.5933 29.6407 53.2764 30.0729 53.0578 30.5558C52.8391 31.0388 52.7235 31.562 52.7184 32.0921C52.7184 34.7238 54.3481 35.7873 58.0996 37.417L60.2931 38.3549C67.7449 41.5503 71.9499 44.8073 71.9499 52.1309C71.9499 60.026 65.7487 64.3515 57.418 64.3515C54.173 64.5579 50.9377 63.8209 48.1022 62.2295C45.2668 60.6381 42.9524 58.2602 41.4383 55.3827L48.5594 51.2315ZM17.5839 52.0002C18.9626 54.4448 20.2156 56.5102 23.2214 56.5102C26.1017 56.5102 27.9211 55.3827 27.9211 51.0008V21.1861H36.6899V51.1238C36.6899 60.2028 31.3651 64.3361 23.5956 64.3361C20.8511 64.4846 18.126 63.7989 15.7787 62.3691C13.4314 60.9394 11.5719 58.8325 10.4448 56.3257L17.5839 52.0002Z" fill="#343434"/>
</svg>
