<svg width="123" height="74" viewBox="0 0 123 74" fill="none" xmlns="http://www.w3.org/2000/svg">
<g clip-path="url(#clip0)">
<path d="M29.2868 19.2919H52.2971V21.121H31.396V34.8858H51.0509V36.7146H31.396V51.8272H52.5368V53.656H29.2868V19.2919ZM54.3587 19.2919H56.8035L67.6374 34.4045L78.7111 19.2917L93.7731 0.0957031L69.0275 35.9929L81.7792 53.656H79.2384L67.6374 37.581L55.9883 53.656H53.4957L66.3431 35.9926L54.3585 19.2919H54.3587ZM82.6899 21.121V19.2917H108.912V21.1207H96.8316V53.6558H94.7224V21.121H82.6899ZM0.5 19.2917H3.13658L39.4935 73.6969L24.4692 53.6558L2.70505 21.8909L2.60927 53.6562H0.5V19.2917ZM108.7 51.2749C108.269 51.2749 107.946 50.9413 107.946 50.5095C107.946 50.0782 108.269 49.7441 108.7 49.7441C109.136 49.7441 109.454 50.078 109.454 50.5095C109.454 50.941 109.136 51.2749 108.7 51.2749ZM110.772 49.2614H111.901C111.916 49.8726 112.363 50.2836 113.019 50.2836C113.753 50.2836 114.168 49.8418 114.168 49.0147V43.7749H115.318V49.0198C115.318 50.5095 114.456 51.3675 113.03 51.3675C111.69 51.3675 110.772 50.5352 110.772 49.2611V49.2614ZM116.821 49.1947H117.96C118.057 49.8983 118.745 50.3451 119.735 50.3451C120.658 50.3451 121.336 49.8673 121.336 49.2099C121.336 48.6449 120.904 48.3059 119.925 48.0747L118.97 47.8436C117.631 47.53 117.021 46.8828 117.021 45.7939C117.021 44.4738 118.098 43.5953 119.714 43.5953C121.217 43.5953 122.315 44.4736 122.382 45.7219H121.264C121.156 45.0388 120.561 44.6123 119.699 44.6123C118.791 44.6123 118.186 45.049 118.186 45.7167C118.186 46.2457 118.575 46.549 119.54 46.7749L120.355 46.9753C121.874 47.3299 122.5 47.9463 122.5 49.061C122.5 50.4788 121.402 51.3675 119.648 51.3675C118.006 51.3675 116.903 50.5197 116.821 49.1944V49.1947Z" fill="#343434"/>
</g>
<defs>
<clipPath id="clip0">
<rect width="122" height="73.6289" fill="white" transform="translate(0.5 0.0957031)"/>
</clipPath>
</defs>
</svg>
