<svg width="82" height="82" viewBox="0 0 82 82" fill="none" xmlns="http://www.w3.org/2000/svg">
<g clip-path="url(#clip0)">
<path d="M67.0642 68.9228L67.1427 68.7633C67.2193 68.6393 67.2813 68.5067 67.3275 68.3684V68.3558C67.5781 67.6976 67.6312 66.999 67.5123 66.2979V66.3232C67.3823 65.581 67.1135 64.8699 66.72 64.2273L66.7453 64.2526L48.7886 32.6778L46.0473 27.8912L25.4024 64.2526C25.0455 64.8854 24.8227 65.5714 24.7038 66.2827V66.3232C24.5595 67.1408 24.6506 67.971 24.9797 68.7355L24.967 68.7101C25.0075 68.8291 25.0733 68.9354 25.1391 69.0519L25.1265 69.0392C25.6682 69.9631 26.8148 71.0693 29.3461 71.0693H62.7535C63.28 71.0693 65.8771 70.963 67.0769 68.9202L67.0642 68.9228ZM46.0498 37.4796L62.4498 66.3257H29.6625L46.0498 37.4796ZM80.6419 64.2577L56.9645 22.5452C56.7139 22.0972 55.3572 19.8823 52.9702 19.8823C51.902 19.8823 50.3732 20.343 49.1202 22.5325L46.0625 27.8988L48.7785 32.698L52.9981 25.2233L76.4248 66.3434H67.5123C67.6312 67.0294 67.5654 67.728 67.3275 68.3861V68.3608C67.2743 68.5051 67.2212 68.6519 67.1427 68.7836V68.7709L67.0642 68.9304C65.8644 70.9731 63.28 71.0794 62.7788 71.0794H76.7134C77.2272 71.0794 79.799 70.9731 80.9988 68.9304C81.5405 67.9938 81.9075 66.4396 80.6419 64.2627V64.2577ZM25.1543 69.0417L24.9949 68.7253V68.7127C24.6636 67.9545 24.5623 67.1156 24.7038 66.3004V66.3257H5.55992L34.0112 16.2677L43.3439 32.6803L46.0599 27.8937L37.9118 13.5491C37.6865 13.1416 36.3171 10.9268 33.9428 10.9268C32.8746 10.9268 31.3331 11.3874 30.0928 13.5896L1.27452 64.2551C1.02392 64.6905 -0.163232 66.9838 1.02392 69.0266C1.56561 69.9631 2.71227 71.0566 5.24352 71.0566H29.3689C26.8629 71.0566 25.691 69.9758 25.1493 69.0266L25.1543 69.0417Z" fill="#343434"/>
</g>
<defs>
<clipPath id="clip0">
<rect width="81" height="81" fill="white" transform="translate(0.5 0.5)"/>
</clipPath>
</defs>
</svg>
