<svg width="73" height="74" viewBox="0 0 73 74" fill="none" xmlns="http://www.w3.org/2000/svg">
<g clip-path="url(#clip0)">
<path d="M59.7601 25.5381C59.0007 25.2824 58.2413 25.041 57.4819 24.8138C57.6085 24.2884 57.721 23.763 57.8335 23.2376C59.5632 14.7742 58.4241 7.9722 54.5851 5.72854C50.8866 3.58429 44.8538 5.81375 38.7507 11.1815C38.146 11.7069 37.5554 12.2607 36.9929 12.8145C36.6132 12.4453 36.2194 12.0761 35.8257 11.7211C29.4272 5.98415 23.0147 3.57009 19.1757 5.82795C15.4913 7.9864 14.3944 14.3908 15.9413 22.3998C16.096 23.195 16.2647 23.976 16.4616 24.7712C15.5616 25.0268 14.6757 25.3109 13.846 25.6091C6.33662 28.2361 0.950684 32.3826 0.950684 36.6711C0.950684 41.1017 6.68818 45.5464 14.4929 48.2444C15.1257 48.4575 15.7585 48.6705 16.4054 48.8551C16.1944 49.7071 16.0116 50.5449 15.8429 51.4111C14.3663 59.2923 15.5194 65.5405 19.2038 67.6847C23.0007 69.9 29.3851 67.6279 35.6007 62.1324C36.0929 61.6922 36.5851 61.2378 37.0772 60.755C37.696 61.3656 38.3429 61.9478 38.9897 62.5158C45.0085 67.7416 50.9569 69.8574 54.6272 67.7132C58.4241 65.4979 59.6616 58.7811 58.0585 50.6017C57.9319 49.9769 57.7913 49.3379 57.6366 48.6847C58.0866 48.5569 58.5226 48.4148 58.9585 48.2728C67.0726 45.5606 72.9507 41.1727 72.9507 36.6711C72.9507 32.3684 67.4101 28.1935 59.7601 25.5381ZM40.7335 13.4819C45.9647 8.88103 50.8444 7.07758 53.0663 8.36981C55.4429 9.74725 56.3569 15.3138 54.8663 22.627C54.7679 23.1098 54.6694 23.5784 54.5429 24.047C51.421 23.337 48.2569 22.8258 45.0788 22.5418C43.2507 19.9005 41.2538 17.3728 39.0882 15.0014C39.6366 14.476 40.171 13.979 40.7335 13.4819ZM24.4632 44.0411C25.1804 45.2766 25.9116 46.512 26.6851 47.719C24.4913 47.4776 22.3116 47.1226 20.1601 46.654C20.7788 44.6091 21.5522 42.4933 22.4522 40.3348C23.0991 41.5845 23.7601 42.8199 24.4632 44.0411ZM20.2022 26.9581C22.2272 26.5037 24.3788 26.1345 26.6147 25.8505C25.8694 27.0291 25.1382 28.2361 24.4491 29.4574C23.7601 30.6644 23.0851 31.8998 22.4522 33.1495C21.5663 31.0336 20.821 28.9603 20.2022 26.9581ZM24.0554 36.7421C24.9835 34.7825 25.996 32.8654 27.0647 30.9768C28.1335 29.0881 29.2866 27.2563 30.496 25.4529C32.6054 25.2967 34.7569 25.2114 36.9507 25.2114C39.1444 25.2114 41.3101 25.2967 43.4054 25.4529C44.6007 27.2421 45.7397 29.0739 46.8226 30.9484C47.9054 32.8228 48.9179 34.7399 49.8741 36.6853C48.9319 38.645 47.9194 40.5762 46.8366 42.4791C45.7679 44.3677 44.6288 46.1996 43.4335 48.0172C41.3382 48.1734 39.1585 48.2444 36.9507 48.2444C34.7429 48.2444 32.6054 48.1734 30.5382 48.0456C29.3147 46.2422 28.1616 44.3961 27.0788 42.5075C25.996 40.6189 24.9976 38.7018 24.0554 36.7421ZM49.4522 44.0127C50.1694 42.7631 50.8444 41.4993 51.5054 40.2212C52.4054 42.2803 53.1929 44.3677 53.8819 46.512C51.7022 47.009 49.4944 47.3924 47.2726 47.648C48.0319 46.4552 48.7491 45.234 49.4522 44.0127ZM51.4772 33.1495C50.8163 31.8998 50.1413 30.6502 49.4382 29.429C48.7491 28.2219 48.0319 27.0291 47.2866 25.8505C49.5507 26.1345 51.7163 26.5179 53.7413 26.9865C53.0944 29.0881 52.3351 31.133 51.4772 33.1495ZM36.9788 17.174C38.4554 18.7929 39.8476 20.4969 41.1413 22.2578C38.3569 22.13 35.5585 22.13 32.7741 22.2578C34.1522 20.4259 35.5726 18.7219 36.9788 17.174ZM20.6663 8.46921C23.0288 7.07758 28.2741 9.06563 33.8007 14.0074C34.1522 14.3198 34.5038 14.6606 34.8694 15.0014C32.6897 17.3728 30.6788 19.9005 28.8366 22.5418C25.6585 22.8258 22.5085 23.3228 19.3866 24.0186C19.2038 23.2944 19.0491 22.556 18.8944 21.8176C17.5726 14.9446 18.4444 9.76145 20.6663 8.46921ZM17.221 45.9014C16.6304 45.731 16.0538 45.5464 15.4772 45.3476C12.4819 44.3961 9.07881 42.8909 6.61787 40.9171C5.19756 39.923 4.24131 38.3894 3.97412 36.6711C3.97412 34.0725 8.41787 30.7496 14.8304 28.4917C15.6319 28.2077 16.4476 27.9521 17.2632 27.7107C18.2194 30.7922 19.3726 33.8169 20.7085 36.7421C19.3585 39.71 18.1913 42.7773 17.221 45.9014ZM33.6179 59.8177C31.2976 61.962 28.6116 63.666 25.6866 64.8305C24.1257 65.5831 22.3257 65.6541 20.7226 65.0151C18.4866 63.7086 17.5585 58.6959 18.8241 51.9507C18.9788 51.1555 19.1476 50.3603 19.3444 49.5793C22.4944 50.2609 25.6726 50.7295 28.8929 50.9709C30.7491 53.6264 32.7882 56.1683 34.9679 58.5539C34.5179 58.9941 34.0679 59.4201 33.6179 59.8177ZM37.0632 56.3671C35.6288 54.805 34.1944 53.0726 32.8022 51.2123C34.1522 51.2691 35.5444 51.2975 36.9507 51.2975C38.3991 51.2975 39.8194 51.2691 41.2257 51.1981C39.9319 53.0016 38.5397 54.7198 37.0632 56.3671ZM55.4429 60.6272C55.3163 62.3596 54.4726 63.9785 53.1226 65.0719C50.8866 66.3783 46.1194 64.6743 40.9726 60.2154C40.3819 59.7041 39.7913 59.1503 39.1866 58.5823C41.3382 56.1824 43.321 53.6406 45.121 50.9709C48.3413 50.7011 51.5476 50.2041 54.7116 49.4799C54.8522 50.0621 54.9788 50.6443 55.0913 51.2123C55.7804 54.2796 55.8929 57.4747 55.4429 60.6272ZM58.0022 45.3618C57.6085 45.4896 57.2147 45.6174 56.8069 45.731C55.8226 42.6353 54.6132 39.6106 53.221 36.6711C54.571 33.7743 55.7101 30.7922 56.6663 27.7391C57.3976 27.9521 58.1007 28.1793 58.7757 28.4065C65.3288 30.6786 69.9272 34.0583 69.9272 36.6427C69.9272 39.426 65.0194 43.0187 58.0022 45.3618ZM36.9507 43.2317C40.5085 43.2317 43.3913 40.3206 43.3913 36.7279C43.3913 33.1353 40.5085 30.2242 36.9507 30.2242C33.3929 30.2242 30.5101 33.1353 30.5101 36.7279C30.5101 40.3206 33.3929 43.2317 36.9507 43.2317Z" fill="#343434"/>
</g>
<defs>
<clipPath id="clip0">
<rect width="72" height="72.7059" fill="white" transform="translate(0.950684 0.375)"/>
</clipPath>
</defs>
</svg>
