<svg width="62" height="63" viewBox="0 0 62 63" fill="none" xmlns="http://www.w3.org/2000/svg">
<g clip-path="url(#clip0)">
<path fill-rule="evenodd" clip-rule="evenodd" d="M54.9033 8.96412C56.7205 11.8713 57.5892 15.2715 57.3893 18.6941C57.1894 22.1167 55.9306 25.3925 53.7873 28.0684C55.5025 31.7284 55.8175 35.8899 54.6728 39.7664C53.5282 43.6429 51.0031 46.9658 47.5749 49.1071L30.0496 60.0604C26.7374 62.1379 22.7962 62.9744 18.9258 62.4214C15.0553 61.8684 11.5061 59.9617 8.90828 57.0398C6.31047 54.1178 4.83221 50.3698 4.73597 46.4613C4.63973 42.5527 5.93176 38.7365 8.38262 35.6903C6.66742 32.0302 6.35239 27.8687 7.49706 23.9922C8.64173 20.1157 11.1668 16.7928 14.595 14.6516L32.1162 3.70238C33.9576 2.55183 36.0076 1.77526 38.1492 1.41702C40.2907 1.05877 42.4819 1.12587 44.5975 1.61447C46.7131 2.10307 48.7118 3.00361 50.4793 4.26467C52.2469 5.52573 53.7488 7.12261 54.8992 8.96412H54.9033ZM34.3069 7.21158C36.6879 5.7199 39.5049 5.08104 42.2964 5.39966C45.0879 5.71828 47.6885 6.97548 49.6721 8.96533C51.6557 10.9552 52.9047 13.5597 53.2146 16.3522C53.5244 19.1447 52.8767 21.9597 51.3776 24.336C48.8484 21.3781 45.3554 19.4091 41.5154 18.7766L44.5079 16.9042L42.3173 13.3992L21.2869 26.5432L23.4776 30.0441L32.2402 24.5716C35.029 22.8286 38.396 22.2648 41.6005 23.0043C44.805 23.7438 47.5844 25.726 49.3274 28.5148C51.0704 31.3036 51.6342 34.6706 50.8947 37.875C50.1552 41.0795 48.173 43.859 45.3842 45.602L27.8589 56.5553C25.4779 58.047 22.6609 58.6859 19.8694 58.3672C17.0778 58.0486 14.4773 56.7914 12.4937 54.8016C10.5101 52.8117 9.26104 50.2072 8.95119 47.4147C8.64135 44.6222 9.28906 41.8072 10.7882 39.4309C13.3173 42.3888 16.8103 44.3578 20.6503 44.9903L17.6537 46.8585L19.8444 50.3636L40.8789 37.2196L38.6882 33.7187L29.9256 39.1953C27.1362 40.9383 23.7687 41.5019 20.5638 40.762C17.359 40.0221 14.5793 38.0394 12.8363 35.2501C11.0933 32.4607 10.5297 29.0932 11.2696 25.8883C12.0095 22.6835 13.9922 19.9038 16.7816 18.1608L34.3069 7.21158Z" fill="#343434"/>
</g>
<defs>
<clipPath id="clip0">
<rect width="62" height="62" fill="white" transform="translate(0 0.927734)"/>
</clipPath>
</defs>
</svg>
